<svg width="24" height="22" viewBox="0 0 24 22" fill="none" xmlns="http://www.w3.org/2000/svg">
<path d="M23.1977 3.45224C23.1977 2.03167 22.1961 0.869392 20.9719 0.869392H3.16555C1.94136 0.869392 0.939758 2.03167 0.939758 3.45224V18.9493C0.939758 20.3699 1.94136 21.5322 3.16555 21.5322H20.9719C22.1961 21.5322 23.1977 20.3699 23.1977 18.9493V3.45224ZM12.0687 3.45224C14.8683 3.45224 16.031 7.0357 13.7647 8.67934V8.67934C12.7531 9.41303 11.3844 9.41303 10.3728 8.67934V8.67934C8.10648 7.0357 9.26915 3.45224 12.0687 3.45224V3.45224ZM20.9719 14.5873C20.9719 16.9964 19.0189 18.9493 16.6098 18.9493H7.52762C5.11852 18.9493 3.16555 16.9964 3.16555 14.5872V14.0634C3.16555 10.7192 6.95739 8.78516 9.66458 10.7486V10.7486C11.0986 11.7886 13.0388 11.7886 14.4729 10.7486V10.7486C17.18 8.78516 20.9719 10.7192 20.9719 14.0634V14.5873Z" fill="#A5A5A5"/>
</svg>
