<svg width="16" height="19" viewBox="0 0 16 19" fill="none" xmlns="http://www.w3.org/2000/svg">
<path d="M11.2506 12.1352C11.7514 11.8454 12.3247 11.6805 12.9352 11.6805H12.9373C12.9993 11.6805 13.0283 11.6002 12.9828 11.5557C12.3479 10.942 11.6226 10.4463 10.8367 10.089C10.8284 10.0846 10.8201 10.0823 10.8119 10.0779C12.097 9.0726 12.9331 7.43877 12.9331 5.59542C12.9331 2.54174 10.6401 0.0675964 7.81105 0.0675964C4.98201 0.0675964 2.69105 2.54174 2.69105 5.59542C2.69105 7.43877 3.52714 9.0726 4.81438 10.0779C4.8061 10.0823 4.79783 10.0846 4.78955 10.089C3.86447 10.5103 3.03459 11.1143 2.32061 11.8856C1.61074 12.6487 1.0456 13.5534 0.656709 14.5492C0.274081 15.5242 0.0675813 16.569 0.0482695 17.6274C0.0477172 17.6511 0.0515914 17.6748 0.059664 17.697C0.0677366 17.7191 0.0798442 17.7393 0.0952734 17.7563C0.110703 17.7734 0.129141 17.7869 0.149503 17.7961C0.169864 17.8054 0.191737 17.8101 0.213831 17.8101H1.45348C1.54247 17.8101 1.61697 17.7321 1.61904 17.6363C1.66043 15.9155 2.29991 14.304 3.43194 13.0825C4.60122 11.8187 6.1575 11.1232 7.81312 11.1232C8.98654 11.1232 10.1124 11.4732 11.083 12.1285C11.1079 12.1454 11.1365 12.1549 11.166 12.1561C11.1954 12.1572 11.2246 12.15 11.2506 12.1352ZM7.81312 9.42924C6.86528 9.42924 5.97331 9.03025 5.30072 8.30584C4.96979 7.95034 4.70744 7.52783 4.52879 7.06266C4.35013 6.59748 4.25869 6.09882 4.25975 5.59542C4.25975 4.57233 4.63019 3.60942 5.30072 2.885C5.97124 2.16059 6.86321 1.76161 7.81312 1.76161C8.76303 1.76161 9.65293 2.16059 10.3255 2.885C10.6564 3.2405 10.9188 3.66301 11.0975 4.12819C11.2761 4.59337 11.3675 5.09202 11.3665 5.59542C11.3665 6.61852 10.996 7.58143 10.3255 8.30584C9.65293 9.03025 8.76096 9.42924 7.81312 9.42924ZM15.4248 14.7342H13.6864V12.8618C13.6864 12.7638 13.6119 12.6835 13.5209 12.6835H12.3619C12.2709 12.6835 12.1964 12.7638 12.1964 12.8618V14.7342H10.458C10.3669 14.7342 10.2924 14.8144 10.2924 14.9125V16.1607C10.2924 16.2588 10.3669 16.339 10.458 16.339H12.1964V18.2113C12.1964 18.3094 12.2709 18.3897 12.3619 18.3897H13.5209C13.6119 18.3897 13.6864 18.3094 13.6864 18.2113V16.339H15.4248C15.5159 16.339 15.5904 16.2588 15.5904 16.1607V14.9125C15.5904 14.8144 15.5159 14.7342 15.4248 14.7342Z" fill="#A5A5A5"/>
</svg>
